Hudson & Rex T7 [AMZN WEB-DL][1080p][CASTELLANO][3,5Gbs][08/08][MEGA]


[url=https://postimg.cc/K3rDwr4d][img]https://i.postimg.cc/KjCpK0bv/633c220c1d0f7.png[/img][/url]



Ficha Técnica

TÍTULO: Hudson & Rex
TÍTULO ORIGINAL: Hudson & Rex
TEMPORADA: 7
CAPÍTULOS: 8
AÑO: 2019
DURACIÓN: Aproximadamente 45 minutos por episodio
PAÍS: Canadá
CREADORES/ADAPTACIÓN: Basada en la serie austriaca-italiana Kommissar Rex (Inspector Rex)
REPARTO PRINCIPAL: John Reardon, Luke Roberts, Mayko Nguyen, Kevin Hanchard, Justin Kelly
COMPAÑÍAS: Shaftesbury Films, Citytv, distribuida internacionalmente
GÉNERO: Serie de TV. Intriga | Policíaco. Perros/Lobos
RATING APROXIMADO: Alrededor de 7.3/10 en IMDb



Sinopsis


El detective Charlie Hudson (luego Mark Hudson) del Departamento de Policía de St. John's (Terranova, Canadá) forma equipo con Rex, un extraordinario pastor alemán ex-K9 con sentidos agudos, para resolver crímenes complejos. La serie combina investigación policial tradicional con las habilidades únicas de Rex (olfato, rastreo, acción), en casos semanales que van desde secuestros y asesinatos hasta conspiraciones mayores. Es una adaptación moderna y ligera de la clásica Inspector Rex, con énfasis en la química entre humano y perro.




Datos Del Ripeo

Ripeo Por: MattDrayton
Fuente del audio: AMZN
Versión: AMZN WEB-DL 1080p (Sin Logos ni publicidad)
Servidores: Mega






Datos del Video
Formato: Matroska
Video: High@L4 | 1920x960 @ 6 266 kb/s
Framerate: 25.000
Resolución: 1920x1080
Audio: Castellano AC3 256Kbps 2 canales
Subtitulos: SI




[SPOILER]

MediaInfo:

Video
ID : 1
Format : AVC
Format/Info : Advanced Video Codec
Format profile : High@L4
Format settings : CABAC / 4 Ref Frames
Format settings, CABAC : Yes
Format settings, Reference : 4 frames
Codec ID : V_MPEG4/ISO/AVC
Duration : 43 min 49 s
Bit rate mode : Constant
Bit rate : 6 151 kb/s
Nominal bit rate : 10 000 kb/s
Width : 1 920 pixels
Height : 960 pixels
Display aspect ratio : 2.000
Frame rate mode : Constant
Frame rate : 23.976 (24000/1001) FPS
Color space : YUV
Chroma subsampling : 4:2:0
Bit depth : 8 bits
Scan type : Progressive
Bits/(Pixel*Frame) : 0.139
Stream size : 1.88 GiB (91%)
Default : Yes
Forced : No
Color range : Limited
Color primaries : BT.709
Transfer characteristics : BT.709
Matrix coefficients : BT.709




Audio
Format : AC-3
Format/Info : Audio Coding 3
Commercial name : Dolby Digital
Bit rate mode : Constant
Bit rate : 256 kb/s
Channel(s) : 2 channels
Channel layout : L R
Sampling rate : 48.0 kHz
Frame rate : 31.250 FPS (1536 SPF)
Compression mode : Lossy
Stream size : 80.7 MiB (100%)
Service kind : Complete Main


[/SPOILER]



[Hide][code]

7x01 Blues de la isla Bell

https://www.keeplinks.org/p55/696444755546e

7x02 Una habitación con una pista

https://www.keeplinks.org/p55/696444a3c2fd5

7x03 ¡Receta para Rex!

https://www.keeplinks.org/p55/696444cbdf7a0

7x04 Endiablado por abejas

https://www.keeplinks.org/p55/696444f8d87c0

7x05 De vuelta del frío

https://www.keeplinks.org/p55/6964452479891

7x06 Besa el bacalao y hazlos morir

https://www.keeplinks.org/p55/69644549c1369

7x07 Rex criminal

https://www.keeplinks.org/p55/6970177f7197c

7x08 Merodeador caliente en la ciudad

https://www.keeplinks.org/p55/6973f88b0810c


[/code][/Hide]